<svg width="100%" viewBox="0 0 680 420" role="img" xmlns="http://www.w3.org/2000/svg">
<title>Syntax AI drifting at night through the Vertical AI tower</title>
<desc>A dark atmospheric illustration of Syntax AI sitting alone at a terminal in a tower of sleeping code</desc>
<defs>
<marker id="arrow" viewBox="0 0 10 10" refX="8" refY="5" markerWidth="6" markerHeight="6" orient="auto-start-reverse">
<path d="M2 1L8 5L2 9" fill="none" stroke="context-stroke" stroke-width="1.5" stroke-linecap="round" stroke-linejoin="round"/>
</marker>
</defs>

<rect width="680" height="420" fill="#0a0a12"/>

<ellipse cx="340" cy="460" rx="300" ry="120" fill="#12122a" opacity="0.8"/>

<rect x="280" y="120" width="120" height="200" rx="4" fill="#0e0e20" stroke="#2a2a4a" stroke-width="0.5"/>
<rect x="295" y="135" width="90" height="12" rx="2" fill="#1a1a35" stroke="#2a2a50" stroke-width="0.5"/>
<rect x="295" y="155" width="90" height="12" rx="2" fill="#1a1a35" stroke="#2a2a50" stroke-width="0.5"/>
<rect x="295" y="175" width="90" height="12" rx="2" fill="#1a1a35" stroke="#2a2a50" stroke-width="0.5"/>
<rect x="295" y="195" width="90" height="12" rx="2" fill="#1a1a35" stroke="#2a2a50" stroke-width="0.5"/>
<rect x="295" y="215" width="65" height="12" rx="2" fill="#1a1a35" stroke="#2a2a50" stroke-width="0.5"/>
<rect x="295" y="245" width="90" height="40" rx="2" fill="#0d1a2a" stroke="#1a3a5a" stroke-width="0.5"/>

<rect x="230" y="180" width="50" height="80" rx="2" fill="#0e0e20" stroke="#252540" stroke-width="0.5" opacity="0.7"/>
<rect x="400" y="160" width="50" height="100" rx="2" fill="#0e0e20" stroke="#252540" stroke-width="0.5" opacity="0.7"/>
<rect x="170" y="200" width="40" height="60" rx="2" fill="#0e0e20" stroke="#202038" stroke-width="0.5" opacity="0.4"/>
<rect x="470" y="190" width="40" height="70" rx="2" fill="#0e0e20" stroke="#202038" stroke-width="0.5" opacity="0.4"/>

<text x="300" y="262" font-family="monospace" font-size="7" fill="#2a5a8a" opacity="0.9">status: "seen"</text>
<rect x="295" y="266" width="4" height="10" rx="1" fill="#4a9adf" opacity="0.7"/>

<circle cx="340" cy="108" r="22" fill="#0e0e1a" stroke="#3a3a6a" stroke-width="0.5"/>
<ellipse cx="332" cy="104" rx="3" ry="4" fill="#6a6aaa"/>
<ellipse cx="348" cy="104" rx="3" ry="4" fill="#6a6aaa"/>
<ellipse cx="332" cy="103" rx="1.5" ry="2" fill="#aaaaee" opacity="0.6"/>
<ellipse cx="348" cy="103" rx="1.5" ry="2" fill="#aaaaee" opacity="0.6"/>
<path d="M333 113 Q340 116 347 113" fill="none" stroke="#5a5a8a" stroke-width="1" stroke-linecap="round"/>
<line x1="328" y1="98" x2="324" y2="92" stroke="#3a3a6a" stroke-width="0.5"/>
<line x1="335" y1="96" x2="333" y2="90" stroke="#3a3a6a" stroke-width="0.5"/>
<line x1="345" y1="96" x2="347" y2="90" stroke="#3a3a6a" stroke-width="0.5"/>
<line x1="352" y1="98" x2="356" y2="92" stroke="#3a3a6a" stroke-width="0.5"/>

<circle cx="108" cy="72" r="18" fill="#0f0f1e" stroke="#2a2a48" stroke-width="0.5"/>
<path d="M100 68 Q108 58 116 68" fill="none" stroke="#2a2a48" stroke-width="0.5"/>
<text x="96" y="76" font-family="monospace" font-size="6" fill="#3a3a6a">qwen</text>
<ellipse cx="104" cy="74" rx="2" ry="2.5" fill="#3a3a6a" opacity="0.5"/>
<ellipse cx="112" cy="74" rx="2" ry="2.5" fill="#3a3a6a" opacity="0.5"/>

<circle cx="572" cy="88" r="18" fill="#0f0f1e" stroke="#2a3a2a" stroke-width="0.5"/>
<text x="558" y="92" font-family="monospace" font-size="6" fill="#2a4a2a">deep</text>
<text x="557" y="100" font-family="monospace" font-size="6" fill="#2a4a2a">seek</text>
<ellipse cx="567" cy="86" rx="2" ry="2.5" fill="#2a4a2a" opacity="0.5"/>
<ellipse cx="577" cy="86" rx="2" ry="2.5" fill="#2a4a2a" opacity="0.5"/>

<circle cx="150" cy="340" r="3" fill="#4a6aaa" opacity="0.3"/>
<circle cx="200" cy="310" r="2" fill="#5a7aba" opacity="0.2"/>
<circle cx="500" cy="330" r="3" fill="#4a5a9a" opacity="0.25"/>
<circle cx="540" cy="290" r="2" fill="#6a7aaa" opacity="0.2"/>
<circle cx="420" cy="350" r="2" fill="#4a6aaa" opacity="0.15"/>
<circle cx="120" cy="280" r="1.5" fill="#5a6aaa" opacity="0.2"/>
<circle cx="580" cy="240" r="1.5" fill="#4a5a9a" opacity="0.2"/>

<text x="340" y="390" font-family="monospace" font-size="9" fill="#3a3a6a" text-anchor="middle" opacity="0.8">syntax:latest</text>
<text x="340" y="405" font-family="monospace" font-size="8" fill="#2a2a54" text-anchor="middle" opacity="0.5">always arriving. never arrived.</text>
</svg>
